<?xml version="1.0" encoding="iso-8859-1"?>
<!-- Generator: Adobe Illustrator 24.0.0, SVG Export Plug-In . SVG Version: 6.00 Build 0)  -->
<svg version="1.1" id="Layer_1" xmlns="http://www.w3.org/2000/svg" xmlns:xlink="http://www.w3.org/1999/xlink" x="0px" y="0px"
	 viewBox="0 0 160.557 164.318" enable-background="new 0 0 160.557 164.318" xml:space="preserve">
<g>
	<g>
		<g>
			<path fill="#3A3A3A" d="M132.955,132.955H27.602V69.853C11.822,66.311,0,52.184,0,35.352C0,15.86,15.856,0,35.352,0
				c8.257,0,16.196,2.937,22.463,8.121c12.533-10.369,32.393-10.369,44.926,0C109.008,2.937,116.948,0,125.205,0
				c19.496,0,35.352,15.86,35.352,35.352c0,16.832-11.822,30.959-27.602,34.501V132.955z M43.102,117.455h74.352V55.208h7.75
				c10.944,0,19.852-8.908,19.852-19.856S136.149,15.5,125.205,15.5c-6.373,0-12.405,3.137-16.151,8.393l-6.312,8.878l-6.312-8.878
				c-3.746-5.256-9.778-8.393-16.151-8.393s-12.405,3.137-16.151,8.393l-6.312,8.878l-6.312-8.878
				c-3.746-5.256-9.778-8.393-16.151-8.393C24.408,15.5,15.5,24.404,15.5,35.352s8.908,19.856,19.852,19.856h7.75V117.455z"/>
		</g>
		<g>
			<path fill="#3A3A3A" d="M130.064,144.025H30.491c-5.684,0-10.292,4.608-10.292,10.292c0,5.684,4.608,10.292,10.292,10.292h99.573
				c5.684,0,10.292-4.608,10.292-10.292C140.356,148.632,135.748,144.025,130.064,144.025z"/>
		</g>
	</g>
</g>
<g>
	<g>
		<polygon fill="#3A3A3A" points="104.566,74.625 92.804,74.625 92.804,64.612 67.488,64.612 67.488,74.625 55.726,74.625 
			55.726,52.843 104.566,52.843 		"/>
	</g>
</g>
<g>
	<g>
		<rect x="75.238" y="58.727" fill="#3A3A3A" width="9.824" height="37.059"/>
	</g>
</g>
<g>
	<g>
		<rect x="68.071" y="90.878" fill="#3A3A3A" width="24.151" height="9.816"/>
	</g>
</g>
</svg>
