<?xml version="1.0" encoding="iso-8859-1"?>
<!-- Generator: Adobe Illustrator 24.0.0, SVG Export Plug-In . SVG Version: 6.00 Build 0)  -->
<svg version="1.1" id="Layer_1" xmlns="http://www.w3.org/2000/svg" xmlns:xlink="http://www.w3.org/1999/xlink" x="0px" y="0px"
	 viewBox="0 0 202.361 164.318" enable-background="new 0 0 202.361 164.318" xml:space="preserve">
<g>
	<polygon fill="#3A3A3A" points="202.361,40.375 202.361,76.258 182.677,76.258 182.677,60.091 160.315,60.091 160.315,144.635 
		176.578,144.635 176.578,164.318 124.4,164.318 124.4,144.635 140.631,144.635 140.631,60.091 149.244,40.375 	"/>
	<g>
		<path fill="#3A3A3A" d="M150.057,46.499C147.792,20.477,125.872,0,99.291,0C71.169,0,48.297,22.872,48.297,50.995
			c0,28.09,22.872,50.962,50.995,50.962c17.786,0,33.471-9.155,42.594-23.003c5.283-8.04,8.368-17.655,8.368-27.958
			C150.253,49.485,150.188,47.976,150.057,46.499z M99.291,88.831c-20.87,0-37.869-16.965-37.869-37.836
			c0-20.871,16.998-37.869,37.869-37.869c19.361,0,35.342,14.603,37.573,33.373c0.164,1.477,0.263,2.986,0.263,4.496
			c0,5.546-1.181,10.796-3.38,15.554C127.841,79.675,114.616,88.831,99.291,88.831z"/>
		<path fill="#3A3A3A" d="M140.388,31.934c0,7.688,4.621,14.966,1.573,21.562h-26.502v22.791H87.71V25.702h52.314
			C140.252,27.748,140.388,29.841,140.388,31.934z"/>
	</g>
	<polygon fill="#3A3A3A" points="65.456,103.722 60.876,99.205 74.431,85.465 65.086,76.247 51.531,89.987 46.766,85.286 0,132.686 
		18.69,151.123 	"/>
</g>
</svg>
