<?xml version="1.0" encoding="iso-8859-1"?>
<!-- Generator: Adobe Illustrator 24.0.0, SVG Export Plug-In . SVG Version: 6.00 Build 0)  -->
<svg version="1.1" id="Layer_1" xmlns="http://www.w3.org/2000/svg" xmlns:xlink="http://www.w3.org/1999/xlink" x="0px" y="0px"
	 viewBox="0 0 204.122 173.093" enable-background="new 0 0 204.122 173.093" xml:space="preserve">
<g>
	<g>
		<polygon fill="#3A3A3A" points="138.279,95.718 138.279,120.546 124.528,120.546 124.528,109.393 109.096,109.393 
			109.096,141.478 95.422,141.478 95.422,109.393 79.99,109.393 79.99,120.546 66.316,120.546 66.316,95.718 		"/>
	</g>
	<g>
		<path fill="#3A3A3A" d="M156.232,148.882H48.363c-12.716,0-23.061-10.349-23.061-23.065V93.579
			c0-12.675,10.345-22.987,23.061-22.987h107.87c12.675,0,22.987,10.312,22.987,22.987v32.238
			C179.219,138.533,168.907,148.882,156.232,148.882z M48.363,85.396c-4.555,0-8.256,3.668-8.256,8.182v32.238
			c0,4.555,3.701,8.26,8.256,8.26h107.87c4.515,0,8.182-3.705,8.182-8.26V93.579c0-4.515-3.668-8.182-8.182-8.182H48.363z"/>
	</g>
	<g>
		<path fill="#3A3A3A" d="M204.122,61.126H0V0h204.122V61.126z M14.805,46.322h174.512V14.805H14.805V46.322z"/>
	</g>
	<g>
		<path fill="#3A3A3A" d="M204.122,173.093H0V46.322h204.122V173.093z M14.805,158.288h174.512V61.126H14.805V158.288z"/>
	</g>
	<g>
		<g>
			<circle fill="#3A3A3A" cx="102.061" cy="30.564" r="9.949"/>
		</g>
		<g>
			<circle fill="#3A3A3A" cx="129.55" cy="30.564" r="7.035"/>
		</g>
		<g>
			<circle fill="#3A3A3A" cx="74.571" cy="30.564" r="7.035"/>
		</g>
	</g>
</g>
</svg>
