<?xml version="1.0" encoding="iso-8859-1"?>
<!-- Generator: Adobe Illustrator 24.0.0, SVG Export Plug-In . SVG Version: 6.00 Build 0)  -->
<svg version="1.1" id="Layer_1" xmlns="http://www.w3.org/2000/svg" xmlns:xlink="http://www.w3.org/1999/xlink" x="0px" y="0px"
	 viewBox="0 0 128.93 154.105" enable-background="new 0 0 128.93 154.105" xml:space="preserve">
<g>
	<path fill="#3A3A3A" d="M7.766,154.105c-4.287,0-7.766-3.475-7.766-7.762V7.762C0,3.475,3.479,0,7.766,0s7.766,3.475,7.766,7.762
		v138.581C15.533,150.63,12.054,154.105,7.766,154.105z"/>
</g>
<path fill="#3A3A3A" d="M25.568,6.748c0,26.447,0,52.895,0,79.342c34.454,15.869,68.908-15.868,103.361,0
	c0.001-26.447,0.001-52.894,0-79.342C94.476-9.12,60.022,22.617,25.568,6.748z M95.039,29.886c-2.249,0.544-4.5,1.26-6.749,2.084
	c-0.001-1.772-0.001-3.504,0-5.194c-2.557,0.889-5.111,1.904-7.667,2.963c0,9.266,0,19.02,0,29.265
	c1.856-0.615,3.71-1.207,5.565-1.745c0.004-0.002,0.007-0.002,0.01-0.003c0,2.531,0,5.116,0,7.752
	c-0.003,0.001-0.007,0.002-0.01,0.002c-5.959,1.203-11.921,2.852-17.879,4.116c-0.002,0.001-0.007,0.002-0.01,0.002
	c0-1.981,0-3.996,0-6.044c0.003-0.001,0.007-0.002,0.01-0.003c1.855-0.562,3.71-1.171,5.566-1.795
	c-0.001-9.441-0.001-19.01,0-28.707c-2.557,1.072-5.11,2.113-7.667,3.043c0,1.939,0,3.85,0,5.732
	c-2.249,0.864-4.499,1.632-6.749,2.241c0.001-4.216,0.001-8.654,0-13.314c11.859-2.79,23.72-8.73,35.579-11.277
	C95.039,22.354,95.039,25.981,95.039,29.886z"/>
</svg>
